<svg xmlns="http://www.w3.org/2000/svg" xmlns:xlink="http://www.w3.org/1999/xlink" viewBox="0,0,256,256" width="144px" height="144px" fill-rule="nonzero"><g fill="#000000" fill-rule="nonzero" stroke="#000000" stroke-width="1" stroke-linecap="butt" stroke-linejoin="round" stroke-miterlimit="10" stroke-dasharray="" stroke-dashoffset="0" font-family="none" font-weight="none" font-size="none" text-anchor="none" style="mix-blend-mode: normal"><path d="M218.00864,43.7464c1.68976,4.06419 0.70995,8.74894 -2.46697,11.79526l-72.45833,72.45834l72.45833,72.45834c2.78657,2.67538 3.90907,6.64818 2.9346,10.38623c-0.97447,3.73805 -3.89365,6.65723 -7.6317,7.6317c-3.73805,0.97447 -7.71085,-0.14803 -10.38623,-2.9346l-72.45834,-72.45833l-72.45834,72.45833c-2.67538,2.78655 -6.64818,3.90904 -10.38621,2.93456c-3.73804,-0.97448 -6.6572,-3.89364 -7.63168,-7.63168c-0.97448,-3.73804 0.14801,-7.71083 2.93456,-10.38621l72.45833,-72.45834l-72.45833,-72.45834c-3.10917,-3.026 -4.07595,-7.6336 -2.44533,-11.65413c1.63063,-4.02053 5.5338,-6.65299 9.87241,-6.65837c2.88363,-0.00265 5.6455,1.16223 7.65625,3.22917l72.45834,72.45833l72.45834,-72.45833c1.95147,-2.03502 4.62921,-3.21472 7.44791,-3.28125c4.40024,-0.10402 8.41262,2.50513 10.10238,6.56932z" id="strokeMainSVG"></path></g><g fill="#000000" fill-rule="nonzero" stroke="none" stroke-width="1" stroke-linecap="butt" stroke-linejoin="miter" stroke-miterlimit="10" stroke-dasharray="" stroke-dashoffset="0" font-family="none" font-weight="none" font-size="none" text-anchor="none" style="mix-blend-mode: normal"><g transform="scale(5.33333,5.33333)"><path d="M38.98242,6.9707c-0.52851,0.01247 -1.03058,0.23367 -1.39648,0.61523l-13.58594,13.58594l-13.58594,-13.58594c-0.37701,-0.38755 -0.89487,-0.60596 -1.43555,-0.60547c-0.81349,0.00101 -1.54534,0.49459 -1.85108,1.24844c-0.30574,0.75385 -0.12447,1.61777 0.4585,2.18515l13.58594,13.58594l-13.58594,13.58594c-0.52248,0.50163 -0.73294,1.24653 -0.55023,1.94741c0.18271,0.70088 0.73006,1.24823 1.43094,1.43094c0.70088,0.18271 1.44578,-0.02775 1.94741,-0.55023l13.58594,-13.58594l13.58594,13.58594c0.50163,0.52248 1.24653,0.73295 1.94742,0.55024c0.70088,-0.18271 1.24823,-0.73006 1.43094,-1.43094c0.18271,-0.70088 -0.02776,-1.44578 -0.55024,-1.94742l-13.58594,-13.58594l13.58594,-13.58594c0.59567,-0.57119 0.77939,-1.44958 0.46256,-2.21161c-0.31683,-0.76204 -1.06915,-1.25125 -1.8942,-1.23175z"></path></g></g></svg>